HIERARCHY
ROOT Hips
{
 OFFSET 0.000000 0.000000 0.000000
 CHANNELS 6 Xposition Yposition Zposition Yrotation Xrotation Zrotation
 JOINT Chest
 {
  OFFSET 0.000000 14.374500 -0.011500
  CHANNELS 3 Yrotation Xrotation Zrotation
  JOINT Chest2
  {
   OFFSET 0.000000 9.203400 0.023400
   CHANNELS 3 Yrotation Xrotation Zrotation
   JOINT Chest3
   {
    OFFSET 0.000000 9.162700 0.000000
    CHANNELS 3 Yrotation Xrotation Zrotation
    JOINT Chest4
    {
     OFFSET 0.000000 9.153300 0.000000
     CHANNELS 3 Yrotation Xrotation Zrotation
     JOINT Neck
     {
      OFFSET 0.000000 13.353600 0.000000
      CHANNELS 3 Yrotation Xrotation Zrotation
      JOINT Head
      {
       OFFSET 0.000000 8.573800 0.049400
       CHANNELS 3 Yrotation Xrotation Zrotation
       End Site
       {
        OFFSET 0.000000 16.219200 0.026100
       }
      }
     }
     JOINT RightCollar
     {
      OFFSET -2.497100 8.876100 0.000000
      CHANNELS 3 Yrotation Xrotation Zrotation
      JOINT RightShoulder
      {
       OFFSET -12.289200 0.000000 0.000000
       CHANNELS 3 Yrotation Xrotation Zrotation
       JOINT RightElbow
       {
        OFFSET 0.000000 -28.194900 0.000000
        CHANNELS 3 Yrotation Xrotation Zrotation
        JOINT RightWrist
        {
         OFFSET 0.000000 -23.009700 0.007900
         CHANNELS 3 Yrotation Xrotation Zrotation
         End Site
         {
          OFFSET 0.000000 -17.151500 0.000000
         }
        }
       }
      }
     }
     JOINT LeftCollar
     {
      OFFSET 2.497100 8.876100 0.000000
      CHANNELS 3 Yrotation Xrotation Zrotation
      JOINT LeftShoulder
      {
       OFFSET 12.289200 0.000000 0.000000
       CHANNELS 3 Yrotation Xrotation Zrotation
       JOINT LeftElbow
       {
        OFFSET 0.000000 -28.194900 0.000000
        CHANNELS 3 Yrotation Xrotation Zrotation
        JOINT LeftWrist
        {
         OFFSET 0.000000 -23.009700 0.007900
         CHANNELS 3 Yrotation Xrotation Zrotation
         End Site
         {
          OFFSET 0.000000 -17.151500 0.000000
         }
        }
       }
      }
     }
    }
   }
  }
 }
 JOINT RightHip
 {
  OFFSET -11.777600 0.056700 0.005700
  CHANNELS 3 Yrotation Xrotation Zrotation
  JOINT RightKnee
  {
   OFFSET 0.000000 -39.966000 -0.004200
   CHANNELS 3 Yrotation Xrotation Zrotation
   JOINT RightAnkle
   {
    OFFSET 0.000000 -41.981900 0.027400
    CHANNELS 3 Yrotation Xrotation Zrotation
    JOINT RightToe
    {
     OFFSET 0.000000 -9.910600 16.950100
     CHANNELS 3 Yrotation Xrotation Zrotation
     End Site
     {
      OFFSET 0.000000 -1.461000 6.191600
     }
    }
   }
  }
 }
 JOINT LeftHip
 {
  OFFSET 11.777600 0.056700 0.005700
  CHANNELS 3 Yrotation Xrotation Zrotation
  JOINT LeftKnee
  {
   OFFSET 0.000000 -39.966000 -0.004200
   CHANNELS 3 Yrotation Xrotation Zrotation
   JOINT LeftAnkle
   {
    OFFSET 0.000000 -41.981900 0.027400
    CHANNELS 3 Yrotation Xrotation Zrotation
    JOINT LeftToe
    {
     OFFSET 0.000000 -9.910600 16.950100
     CHANNELS 3 Yrotation Xrotation Zrotation
     End Site
     {
      OFFSET 0.000000 -1.461000 6.191600
     }
    }
   }
  }
 }
}
MOTION
Frames: 12
Frame Time: 0.008333
0.650017 130.421197 53.799063 176.650846 -44.762635 -1.829301 4.153083 30.517307 7.059300 0.508154 6.178791 1.197446 0.842661 9.633918 1.892496 2.861040 24.128449 5.246179 -5.295709 20.193590 -1.717301 -5.303010 -4.169812 -0.632721 6.217500 -1.457519 2.206195 24.267005 -42.039079 -15.751035 -145.734490 -48.769520 171.856415 3.616081 4.683377 -39.027391 -16.429548 -4.740957 -1.914751 -15.482283 -30.027805 9.281135 24.171098 -37.300033 -75.401686 19.006844 4.616568 -25.713326 6.747900 -32.699510 0.793913 -83.260683 82.626168 -88.107199 -0.044169 -25.906962 9.770098 0.002167 -0.005356 0.001267 -3.081868 -32.445495 -4.126293 115.614273 77.578132 124.746054 4.682837 0.044090 -9.364498 0.001984 0.003643 0.001160
0.649034 130.422605 53.811937 176.649105 -44.832434 -1.833554 4.160847 30.549775 7.068046 0.509031 6.176000 1.197122 0.848183 9.588715 1.888061 2.865988 24.123539 5.248640 -5.290663 20.130934 -1.701282 -5.300130 -4.241685 -0.616326 6.243994 -1.472785 2.221607 24.215533 -41.995662 -15.739528 -145.600987 -48.755967 171.768346 3.573175 4.448549 -38.607940 -16.416702 -4.808719 -1.936294 -15.515642 -30.010599 9.267678 24.108851 -37.293007 -75.279054 19.001729 4.639847 -25.765630 6.743569 -32.634415 0.801129 -83.236186 82.631467 -88.081823 -0.039314 -25.904354 9.770819 0.001910 -0.006919 0.001117 -3.079686 -32.385491 -4.124116 115.600065 77.573322 124.738663 4.680175 0.058512 -9.374797 0.005952 0.002960 0.003480
0.646484 130.424023 53.824852 176.647800 -44.903365 -1.832427 4.160204 30.483045 7.058100 0.507137 6.211088 1.200855 0.847935 9.604131 1.890723 2.871357 24.118057 5.251781 -5.286558 20.067738 -1.684120 -5.298564 -4.314060 -0.598352 6.265258 -1.468162 2.236772 24.149579 -41.939857 -15.700309 -145.525916 -48.736741 171.744938 3.517421 4.216526 -38.139863 -16.409376 -4.831396 -1.957308 -15.544073 -30.009787 9.259921 24.048608 -37.310686 -75.167136 18.993098 4.658097 -25.811404 6.742222 -32.566263 0.801815 -83.216589 82.637784 -88.062033 -0.034731 -25.905422 9.768956 0.002683 -0.006752 0.001569 -3.073317 -32.323834 -4.128579 115.568717 77.568326 124.713205 4.644366 0.071050 -9.367564 0.000560 0.002756 0.000327
0.645367 130.425585 53.837969 176.643082 -44.975727 -1.835210 4.168589 30.496136 7.063297 0.508677 6.167406 1.196117 0.847780 9.619483 1.893562 2.876982 24.112403 5.254993 -5.283159 20.003449 -1.666028 -5.297934 -4.387505 -0.579195 6.271194 -1.422077 2.256025 24.175695 -42.018106 -15.786769 -145.378212 -48.788201 171.552614 3.434491 3.984386 -37.625592 -16.402245 -4.830105 -1.979744 -15.572256 -30.032304 9.258260 23.979915 -37.323677 -75.053676 18.981268 4.666084 -25.854450 6.737519 -32.496662 0.813261 -83.181336 82.642543 -88.028668 -0.029923 -25.905164 9.766908 0.002840 -0.005829 0.001660 -3.068467 -32.259060 -4.126863 115.552736 77.565447 124.702019 4.637994 0.083205 -9.370762 -0.000648 0.003721 -0.000379
0.644875 130.426823 53.851655 176.635495 -45.046897 -1.839032 4.178952 30.528370 7.072002 0.511902 6.122440 1.192023 0.849265 9.614591 1.893591 2.881667 24.107075 5.256979 -5.279512 19.938817 -1.646197 -5.297388 -4.461256 -0.558336 6.319148 -1.439013 2.267020 24.103412 -42.009436 -15.794123 -145.171145 -48.767006 171.453689 3.403268 3.811771 -37.218990 -16.393592 -4.829030 -2.002054 -15.601831 -30.052518 9.257315 23.914094 -37.334699 -74.941993 18.967346 4.672831 -25.895699 6.730959 -32.429541 0.831003 -83.092964 82.632937 -87.943126 -0.014820 -25.894850 9.764444 0.003294 -0.004823 0.001926 -3.064491 -32.194469 -4.119615 115.516196 77.559620 124.669286 4.629078 0.095619 -9.373422 -0.000925 0.004023 -0.000541
0.643705 130.428262 53.865224 176.632415 -45.119813 -1.843570 4.177012 30.458974 7.064215 0.509467 6.222103 1.203635 0.851670 9.567911 1.887203 2.885410 24.102090 5.257784 -5.274687 19.873835 -1.623811 -5.296093 -4.535427 -0.535080 6.371664 -1.455712 2.281152 24.018454 -41.981582 -15.786704 -145.003788 -48.752188 171.370769 3.346129 3.622503 -36.787894 -16.385767 -4.830286 -2.023400 -15.630865 -30.069423 9.256147 23.852759 -37.348890 -74.830426 18.953395 4.685347 -25.936388 6.722806 -32.360248 0.847165 -83.032688 82.629842 -87.885613 -0.009730 -25.886657 9.763391 0.004657 -0.003744 0.002723 -3.061696 -32.128254 -4.115583 115.456645 77.551295 124.614616 4.616690 0.111496 -9.377326 0.000488 0.002474 0.000285
0.642955 130.429960 53.878694 176.627428 -45.194800 -1.848426 4.181705 30.432159 7.064150 0.510579 6.218312 1.203242 0.850216 9.606094 1.892539 2.887913 24.121424 5.263027 -5.264710 19.762438 -1.604541 -5.294293 -4.611101 -0.508581 6.416135 -1.495990 2.279676 23.954685 -41.972745 -15.790550 -144.846080 -48.743775 171.280344 3.271983 3.419459 -36.340469 -16.372458 -4.879868 -2.042150 -15.659076 -30.084229 9.253486 23.787579 -37.368802 -74.711273 18.941595 4.702651 -25.981982 6.716873 -32.287929 0.866297 -82.955547 82.624107 -87.810570 -0.002238 -25.878481 9.760921 0.006553 -0.002571 0.003831 -3.057825 -32.058409 -4.110866 115.428230 77.545230 124.588637 4.611598 0.118474 -9.377734 -0.000447 0.003293 -0.000262
0.641045 130.426444 53.897291 176.623551 -45.241194 -1.850493 4.184203 30.397954 7.060929 0.512173 6.194892 1.200290 0.846504 9.687206 1.904581 2.888518 24.097647 5.258184 -5.251133 19.651289 -1.582233 -5.292585 -4.688901 -0.478285 6.436049 -1.494164 2.284688 23.940234 -42.000271 -15.825867 -144.673886 -48.732807 171.183544 3.198863 3.214157 -35.892950 -16.357161 -4.929562 -2.061436 -15.684693 -30.098871 9.247264 23.715183 -37.395454 -74.583529 18.930600 4.725300 -26.035167 6.711361 -32.248079 0.874723 -82.904514 82.625543 -87.763913 0.001084 -25.873264 9.764577 0.006939 0.001725 0.004057 -3.055359 -32.019638 -4.109053 115.408789 77.538948 124.572675 4.606766 0.120566 -9.382306 0.000667 0.010633 0.000390
0.638363 130.422779 53.915928 176.619488 -45.287466 -1.849122 4.186210 30.363870 7.055156 0.513100 6.192476 1.200064 0.853850 9.619919 1.895628 2.897533 24.090899 5.260594 -5.251401 19.648682 -1.540403 -5.289171 -4.767323 -0.445878 6.435240 -1.388728 2.324597 23.927374 -42.027310 -15.859190 -144.488148 -48.717959 171.081080 3.124225 3.012845 -35.440794 -16.364232 -4.869124 -2.085020 -15.707953 -30.114907 9.238724 23.639071 -37.426327 -74.451233 18.918914 4.749714 -26.093183 6.707769 -32.209361 0.873105 -82.874119 82.632728 -87.736155 0.001834 -25.867420 9.766997 0.002370 0.006009 0.001386 -3.050855 -31.980191 -4.110927 115.385513 77.533087 124.552136 4.602562 0.120606 -9.387630 0.003237 0.017842 0.001893
0.637696 130.424574 53.929312 176.615447 -45.364453 -1.854365 4.196885 30.358889 7.062351 0.513431 6.189700 1.199580 0.855473 9.594892 1.891791 2.900382 24.086115 5.260466 -5.241914 19.602981 -1.503787 -5.283242 -4.844360 -0.412170 6.499735 -1.429866 2.326335 23.805795 -41.964619 -15.811599 -144.290464 -48.696553 170.970733 3.050855 2.826731 -34.980002 -16.362596 -4.852478 -2.104505 -15.720996 -30.074813 9.224944 23.585774 -37.513618 -74.349400 18.903554 4.768926 -26.149171 6.702251 -32.134949 0.891051 -82.819725 82.630678 -87.682438 0.004929 -25.859772 9.768504 0.003766 0.007780 0.002202 -3.047847 -31.904103 -4.106273 115.366158 77.531022 124.534107 4.599458 0.116266 -9.389815 0.002590 0.019507 0.001515
0.636384 130.436080 53.933002 176.619820 -45.495664 -1.860758 4.202857 30.408562 7.068488 0.512989 6.207568 1.202048 0.856522 9.569989 1.887264 2.900269 24.127156 5.269821 -5.224973 19.490995 -1.474761 -5.275542 -4.920132 -0.375857 6.545041 -1.493456 2.314213 23.740900 -41.924891 -15.801978 -144.091931 -48.664304 170.857876 2.979178 2.660955 -34.511518 -16.353183 -4.904848 -2.120232 -15.750579 -30.118994 9.222029 23.512029 -37.532686 -74.206423 18.901730 4.772473 -26.170321 6.691051 -32.002055 0.908412 -82.760349 82.633367 -87.622871 0.006589 -25.847927 9.769188 0.003444 -0.003050 0.002014 -3.044807 -31.774832 -4.113481 115.345628 77.525682 124.513149 4.597596 0.128562 -9.391016 0.001562 0.008773 0.000914
0.634243 130.436961 53.946996 176.620389 -45.567636 -1.863821 4.204633 30.400652 7.064690 0.513820 6.204515 1.201489 0.857829 9.565617 1.886492 2.902579 24.167766 5.281463 -5.205859 19.379079 -1.443434 -5.265628 -4.995831 -0.336127 6.556688 -1.492527 2.317112 23.767055 -41.907560 -15.871937 -143.920895 -48.606787 170.751251 2.900628 2.508172 -34.040350 -16.346133 -4.959253 -2.139960 -15.780442 -30.158194 9.224058 23.426314 -37.581498 -74.043382 18.968964 4.749123 -26.131473 6.688206 -31.929976 0.915390 -82.696071 82.635167 -87.556709 0.010521 -25.848385 9.765035 0.004031 -0.002262 0.002357 -3.041964 -31.706809 -4.118732 115.226091 77.510863 124.399389 4.577077 0.147578 -9.396402 0.002944 0.006610 0.001722
